#N canvas 426 22 574 790 10;
#X obj 118 30 phasor~;
#X obj 122 84 tabread4~ fb;
#X obj 114 522 dac~;
#X floatatom 118 8 5 0 0 0 - - -;
#X obj 117 -177 bng 15 250 50 0 empty empty empty 17 7 0 10 -262144
-1 -1;
#X obj 117 -157 openpanel;
#X msg 117 -135 read -resize \$1 fb;
#X obj 117 -113 soundfiler;
#N canvas 0 22 450 278 (subpatch) 0;
#X array fb 352800 float 2;
#X coords 0 1 352800 -1 200 140 1;
#X restore 321 35 graph;
#X obj 121 56 *~ 44100;
#X floatatom 221 299 5 0 0 0 - - -;
#X obj 117 -89 nbx 10 14 -1e+37 1e+37 0 0 empty empty empty 0 -8 0
10 -262144 -1 -1 352800 256;
#X obj 118 -64 / 44100;
#X obj 118 -40 expr 1 / $f1;
#X obj 48 416 *~;
#X obj 122 133 delwrite~ dell 10000;
#X obj 157 399 vd~ dell 10000;
#X obj 157 342 +~;
#X obj 157 371 *~;
#X floatatom 157 289 5 0 0 0 - - -;
#X floatatom 289 328 5 0 0 0 - - -;
#X obj 63 378 sig~ 0.9;
#X obj 221 325 sig~ 100;
#X obj 289 354 sig~ 10;
#X obj 157 312 osc~ 0.5;
#X obj 156 469 *~;
#X floatatom 179 442 5 0 0 0 - - -;
#X obj 100 466 *~;
#X floatatom 123 439 5 0 0 0 - - -;
#X text 53 328 feedback;
#X text 293 309 depth;
#X text 221 281 base;
#X text 154 266 speed;
#X text 208 238 signal controlled delay;
#X floatatom 63 354 5 0 0 0 - - -;
#X text 80 -224 looping sampler;
#X text 76 7 rate;
#X text 60 -175 load;
#X msg 310 -33 0.25;
#X msg 350 -38 0.375;
#X msg 402 -39 0.5;
#X msg 436 -41 0.625;
#X msg 263 -53 0.125;
#X msg 481 -43 0.75;
#X msg 527 -43 0.875;
#X obj 254 -98 sel 0 1 2 3 4 5 6;
#X obj 254 -137 random 6;
#X obj 254 -167 metro 5000;
#X obj 254 -198 tgl 15 0 empty empty empty 17 7 0 10 -262144 -1 -1
1 1;
#X obj 164 -186 del 10000;
#X obj 327 436 unsig~ 10;
#X obj 341 496 nbx 10 14 -1e+37 1e+37 0 0 empty empty empty 0 -8 0
10 -262144 -1 -1 50.4518 256;
#X connect 0 0 9 0;
#X connect 1 0 15 0;
#X connect 1 0 27 0;
#X connect 3 0 0 0;
#X connect 4 0 5 0;
#X connect 4 0 49 0;
#X connect 5 0 6 0;
#X connect 6 0 7 0;
#X connect 7 0 11 0;
#X connect 9 0 1 0;
#X connect 10 0 22 0;
#X connect 11 0 9 1;
#X connect 11 0 12 0;
#X connect 12 0 13 0;
#X connect 13 0 3 0;
#X connect 14 0 15 0;
#X connect 16 0 14 0;
#X connect 16 0 25 0;
#X connect 17 0 18 0;
#X connect 18 0 16 0;
#X connect 18 0 50 0;
#X connect 19 0 24 0;
#X connect 20 0 23 0;
#X connect 21 0 14 1;
#X connect 22 0 17 1;
#X connect 23 0 18 1;
#X connect 24 0 17 0;
#X connect 25 0 2 1;
#X connect 26 0 25 1;
#X connect 27 0 2 0;
#X connect 28 0 27 1;
#X connect 34 0 21 0;
#X connect 38 0 3 0;
#X connect 39 0 3 0;
#X connect 40 0 3 0;
#X connect 41 0 3 0;
#X connect 42 0 3 0;
#X connect 43 0 3 0;
#X connect 44 0 3 0;
#X connect 45 0 42 0;
#X connect 45 1 38 0;
#X connect 45 2 39 0;
#X connect 45 3 40 0;
#X connect 45 4 41 0;
#X connect 45 5 43 0;
#X connect 45 6 44 0;
#X connect 46 0 45 0;
#X connect 47 0 46 0;
#X connect 48 0 47 0;
#X connect 49 0 48 0;
#X connect 50 0 51 0;
